<svg width="30" height="30" viewBox="0 0 30 30" fill="none" xmlns="http://www.w3.org/2000/svg">
<path d="M22.3333 7.66667H22.3466M8.33329 1.66667H21.6666C25.3485 1.66667 28.3333 4.65144 28.3333 8.33333V21.6667C28.3333 25.3486 25.3485 28.3333 21.6666 28.3333H8.33329C4.65139 28.3333 1.66663 25.3486 1.66663 21.6667V8.33333C1.66663 4.65144 4.65139 1.66667 8.33329 1.66667ZM20.3333 14.16C20.4978 15.2697 20.3083 16.403 19.7916 17.3987C19.275 18.3944 18.4575 19.2019 17.4555 19.7062C16.4534 20.2106 15.3179 20.3861 14.2103 20.2079C13.1028 20.0297 12.0796 19.5068 11.2864 18.7135C10.4932 17.9203 9.97027 16.8972 9.79205 15.7896C9.61383 14.6821 9.78938 13.5465 10.2937 12.5445C10.7981 11.5425 11.6055 10.725 12.6013 10.2083C13.597 9.69166 14.7303 9.50212 15.84 9.66667C16.9719 9.83451 18.0198 10.362 18.8289 11.1711C19.638 11.9802 20.1654 13.0281 20.3333 14.16Z" stroke="white" stroke-width="3" stroke-linecap="round" stroke-linejoin="round"/>
</svg>
