<svg width="130" height="45" viewBox="0 0 130 45" fill="none" xmlns="http://www.w3.org/2000/svg">
<path fill-rule="evenodd" clip-rule="evenodd" d="M62.1363 0C48.4917 0 37.4301 10.0504 37.4301 22.4475C37.4301 34.8443 48.4917 44.8961 62.1363 44.8961C75.7809 44.8961 86.8404 34.845 86.8404 22.4475C86.8404 10.05 75.7797 0 62.1363 0ZM63.7685 4.1505C69.9837 4.60425 75.405 7.6125 78.7602 12.0184L67.2558 18.0499C66.3153 17.1424 65.103 16.5051 63.7685 16.2165V4.15088V4.1505ZM60.4966 4.1505V16.2161C59.1612 16.5042 57.9478 17.1414 57.0064 18.0491L45.5012 12.0176C48.8581 7.61025 54.2806 4.60238 60.4966 4.1505ZM43.8884 30.3443C41.3549 25.5049 41.1861 19.734 43.8509 14.6108L55.3651 20.6209C54.974 21.8168 54.9774 23.0908 55.375 24.285L43.8884 30.3443ZM46.346 33.9C46.0911 33.6115 45.846 33.316 45.611 33.0139L57.1546 26.9494C58.0332 27.752 59.1312 28.3275 60.3357 28.6166L60.3382 40.737C54.6821 40.2836 49.698 37.7108 46.346 33.9ZM62.1342 25.7055C61.6593 25.7101 61.1882 25.6291 60.748 25.4672C60.3077 25.3053 59.9072 25.0656 59.5696 24.7621C59.232 24.4586 58.964 24.0973 58.7811 23.6991C58.5982 23.3008 58.504 22.8736 58.504 22.4421C58.504 22.0105 58.5982 21.5833 58.7811 21.1851C58.964 20.7868 59.232 20.4255 59.5696 20.122C59.9072 19.8185 60.3077 19.5789 60.748 19.4169C61.1882 19.255 61.6593 19.174 62.1342 19.1786C62.6057 19.1786 63.0726 19.263 63.5082 19.427C63.9438 19.591 64.3396 19.8314 64.6729 20.1344C65.0063 20.4374 65.2707 20.7971 65.451 21.1929C65.6313 21.5888 65.724 22.0131 65.7239 22.4415C65.7239 24.2438 64.116 25.7055 62.1342 25.7055ZM63.9365 40.737V28.6181C65.1425 28.3296 66.242 27.7541 67.1217 26.9509L78.6702 33.0113C75.3369 37.3088 70.025 40.2503 63.9365 40.737ZM68.9318 24.1226C69.2978 22.9234 69.2483 21.6728 68.8942 20.6235L80.4073 14.5875C83.2726 19.9838 82.6858 25.9575 80.4758 30.1766L68.931 24.1226L68.9318 24.1223V24.1226ZM18.1736 12.7125C19.0807 15.4013 21.367 17.3138 24.0389 17.3138L24.038 17.3145C26.6129 17.3145 31.9986 17.2215 36.7834 17.0708C38.2662 11.2515 42.115 6.25463 47.3596 2.96513H24.038C21.3642 2.96513 19.0774 4.88663 18.1715 7.58138H15.9277C15.3474 7.58138 14.4853 8.21925 14.4853 10.1464C14.4853 12.0739 15.3478 12.7125 15.9277 12.7125H18.1736ZM129.863 3V12.825L99.9911 14.4773C99.781 15.6128 98.944 16.8529 96.923 17.265L87.8668 19.2263C86.8573 12.4999 82.7332 6.67688 76.8577 2.99325L129.863 3ZM56.8038 16.5945L47.4162 11.6775C50.357 8.328 54.5575 6.12563 59.2024 5.49375L59.207 15.3413C58.3321 15.6295 57.519 16.0536 56.8038 16.5945ZM44.5174 28.6654L53.8856 23.7199C53.7255 22.887 53.7263 22.0351 53.8881 21.2025L44.4868 16.2998C42.7754 20.2748 42.7861 24.6806 44.5174 28.6654ZM65.0631 15.3713L65.0817 5.50125C69.7262 6.13388 73.9069 8.32875 76.8465 11.6775L67.437 16.5915C66.7222 16.0478 65.9389 15.6626 65.0631 15.3713ZM80.9595 20.6723C80.7863 19.167 80.3891 17.69 79.7787 16.2818L70.3556 21.2018C70.4324 21.6109 70.4757 22.0193 70.4757 22.434C70.4757 22.6005 70.4678 22.7745 70.4542 22.9403L80.9595 20.6723ZM29.2277 33.3015C24.7586 36.6364 17.375 39.7136 13.2233 40.7063C9.07029 41.6981 5.74765 42.2813 0 42.2813V44.9993C4.72829 44.9993 8.82143 44.982 15.5179 44.0888C23.7834 42.9863 33.0448 39.9555 40.6636 35.7015C38.61 33.0094 37.2378 29.9603 36.5605 26.6168C34.4962 28.92 31.9358 31.2818 29.2277 33.3015ZM62.135 20.3381C63.409 20.3381 64.447 21.2828 64.447 22.4411C64.4469 22.9985 64.2034 23.533 63.7699 23.9274C63.3364 24.3218 62.7484 24.5437 62.135 24.5445C61.5214 24.5436 60.9332 24.3217 60.4993 23.9273C60.0655 23.5329 59.8214 22.9984 59.8206 22.4408C59.8219 21.8834 60.0662 21.3492 60.5 20.9552C60.9338 20.5611 61.5217 20.3392 62.135 20.3381Z" fill="white"/>
</svg>
